<svg width="22" height="23" viewBox="0 0 22 23" fill="none" xmlns="http://www.w3.org/2000/svg">
<g clip-path="url(#clip0_14_74)">
<path fill-rule="evenodd" clip-rule="evenodd" d="M11 2.25C5.89421 2.25 1.75 6.39421 1.75 11.5C1.75 16.6058 5.89421 20.75 11 20.75C16.1058 20.75 20.25 16.6058 20.25 11.5C20.25 6.39421 16.1058 2.25 11 2.25ZM0.25 11.5C0.25 5.56579 5.06579 0.75 11 0.75C16.9342 0.75 21.75 5.56579 21.75 11.5C21.75 17.4342 16.9342 22.25 11 22.25C5.06579 22.25 0.25 17.4342 0.25 11.5Z" fill="white"/>
<path fill-rule="evenodd" clip-rule="evenodd" d="M10.63 6.25977C11.0442 6.25977 11.38 6.59555 11.38 7.00977V11.1098C11.38 11.2633 11.4386 11.4859 11.569 11.7145C11.6994 11.9431 11.861 12.1067 11.9924 12.1845L11.9943 12.1857L11.9943 12.1857L15.0943 14.0357C15.45 14.248 15.5663 14.7084 15.354 15.0641C15.1418 15.4198 14.6814 15.5361 14.3257 15.3238L11.2277 13.475C11.2273 13.4748 11.227 13.4746 11.2266 13.4744C10.8184 13.2322 10.4904 12.8511 10.266 12.4575C10.0414 12.0637 9.88 11.5862 9.88 11.1098V7.00977C9.88 6.59555 10.2158 6.25977 10.63 6.25977Z" fill="white"/>
</g>
<defs>
<clipPath id="clip0_14_74">
<rect width="22" height="23" fill="white"/>
</clipPath>
</defs>
</svg>
