<svg width="14" height="23" viewBox="0 0 14 23" fill="none" xmlns="http://www.w3.org/2000/svg">
<g clip-path="url(#clip0_14_85)">
<path fill-rule="evenodd" clip-rule="evenodd" d="M8.28863 1.33503L13.28 7.42455C13.2869 7.43289 13.2935 7.44138 13.3 7.45C13.6616 7.93213 13.6132 8.52412 13.3125 8.925C13.0196 9.31547 12.4504 9.55087 11.8855 9.28106L7.13372 7.20214C7.07536 7.18405 7.04135 7.17801 7.02485 7.176C7.01684 7.17985 7.00876 7.18356 7.00062 7.18712L2.21433 9.28112C1.65993 9.54557 1.06807 9.32918 0.775966 8.89103C0.46718 8.42785 0.537013 7.82839 0.939216 7.40106L5.91138 1.33502C6.51124 0.554991 7.68877 0.554992 8.28863 1.33503ZM2.93992 7.3264L6.38457 5.81937C6.81802 5.61017 7.23368 5.65399 7.63716 5.78849C7.65867 5.79566 7.67984 5.8038 7.70061 5.81288L11.316 7.39461L7.11996 2.27545C7.11313 2.26711 7.10647 2.25862 7.1 2.25C7.09354 2.25862 7.08688 2.26711 7.08005 2.27545L2.93992 7.3264Z" fill="white"/>
<path fill-rule="evenodd" clip-rule="evenodd" d="M11.316 15.6054L7.70061 17.1871C7.67984 17.1962 7.65867 17.2043 7.63716 17.2115C7.23368 17.346 6.81802 17.3898 6.38456 17.1806L2.93992 15.6736L7.08005 20.7245C7.08688 20.7329 7.09354 20.7413 7.1 20.75C7.10647 20.7413 7.11313 20.7329 7.11996 20.7245L11.316 15.6054ZM13.3125 14.075C13.6132 14.4759 13.6616 15.0678 13.3 15.55C13.2935 15.5586 13.2869 15.5671 13.28 15.5754L8.28863 21.6649C7.68877 22.445 6.51123 22.445 5.91138 21.6649L0.939214 15.5989C0.537013 15.1716 0.467181 14.5721 0.775966 14.1089C1.06807 13.6708 1.65994 13.4544 2.21434 13.7189L7.00062 15.8129C7.00876 15.8164 7.01684 15.8201 7.02485 15.824C7.04135 15.822 7.07536 15.8159 7.13372 15.7978L11.8855 13.7189C12.4504 13.4491 13.0196 13.6845 13.3125 14.075Z" fill="white"/>
<path fill-rule="evenodd" clip-rule="evenodd" d="M6.66458 8.22908C6.87572 8.12351 7.12425 8.12351 7.3354 8.22908L12.5354 10.8291C12.7895 10.9561 12.95 11.2158 12.95 11.4999C12.95 11.784 12.7895 12.0437 12.5354 12.1707L7.3354 14.7707C7.12425 14.8763 6.87572 14.8763 6.66458 14.7707L1.46458 12.1707C1.21049 12.0437 1.04999 11.784 1.04999 11.4999C1.04999 11.2158 1.21049 10.9561 1.46458 10.8291L6.66458 8.22908ZM3.47704 11.4999L6.99999 13.2614L10.5229 11.4999L6.99999 9.73843L3.47704 11.4999Z" fill="white"/>
</g>
<defs>
<clipPath id="clip0_14_85">
<rect width="14" height="23" fill="white"/>
</clipPath>
</defs>
</svg>
