<svg width="9" height="16" viewBox="0 0 9 16" fill="none" xmlns="http://www.w3.org/2000/svg">
<g clip-path="url(#clip0_14_100)">
<path d="M8.30181 6.57909L8.06044 8.66955C8.05043 8.76493 8.00573 8.85332 7.93484 8.91792C7.86395 8.98253 7.7718 9.01885 7.6759 9.02H5.49408L5.48317 15.2177C5.48391 15.2912 5.45571 15.362 5.40468 15.4148C5.35364 15.4676 5.28387 15.4982 5.21044 15.5H2.99999C2.96324 15.5 2.92686 15.4926 2.89304 15.4782C2.85922 15.4639 2.82865 15.4428 2.80318 15.4163C2.77771 15.3898 2.75785 15.3584 2.74481 15.3241C2.73176 15.2897 2.72579 15.2531 2.72726 15.2164V9.02H1.0909C1.0395 9.01947 0.988714 9.00881 0.941436 8.98865C0.894158 8.96849 0.851315 8.93921 0.815353 8.90249C0.77939 8.86576 0.751014 8.82232 0.731843 8.77463C0.712673 8.72694 0.703084 8.67594 0.703624 8.62455L0.695442 6.53409C0.694721 6.48252 0.704166 6.4313 0.723239 6.38338C0.742312 6.33546 0.770638 6.29176 0.806601 6.25478C0.842564 6.21781 0.885458 6.18828 0.932834 6.16788C0.98021 6.14748 1.03114 6.13662 1.08272 6.13591H2.72726V4.11773C2.72726 1.775 4.11817 0.5 6.15817 0.5H7.82999C7.88168 0.500533 7.93276 0.511267 7.98029 0.531584C8.02782 0.551901 8.07088 0.581402 8.10699 0.618395C8.14309 0.655389 8.17154 0.699147 8.1907 0.747159C8.20986 0.795171 8.21935 0.846493 8.21863 0.898182V2.65727C8.21935 2.70896 8.20986 2.76028 8.1907 2.8083C8.17154 2.85631 8.14309 2.90007 8.10699 2.93706C8.07088 2.97405 8.02782 3.00355 7.98029 3.02387C7.93276 3.04419 7.88168 3.05492 7.82999 3.05545H6.80454C5.6959 3.05545 5.48044 3.60091 5.48044 4.38909V6.13591H7.91726C7.97268 6.1366 8.02732 6.14902 8.0776 6.17234C8.12788 6.19566 8.17265 6.22936 8.20897 6.27122C8.24529 6.31308 8.27234 6.36216 8.28834 6.41522C8.30434 6.46828 8.30893 6.52413 8.30181 6.57909Z" fill="#090F1D"/>
</g>
<defs>
<clipPath id="clip0_14_100">
<rect width="9" height="16" fill="white"/>
</clipPath>
</defs>
</svg>
