<svg width="15" height="16" viewBox="0 0 15 16" fill="none" xmlns="http://www.w3.org/2000/svg">
<g clip-path="url(#clip0_15_44)">
<path d="M4.14544 2.54545C4.14544 2.95001 4.02548 3.34548 3.80072 3.68185C3.57596 4.01822 3.25651 4.28039 2.88275 4.43521C2.50899 4.59002 2.09772 4.63053 1.70094 4.55161C1.30416 4.47268 0.939697 4.27787 0.653635 3.99181C0.367574 3.70575 0.172763 3.34128 0.0938388 2.9445C0.0149144 2.54772 0.055421 2.13645 0.210236 1.76269C0.365052 1.38894 0.627223 1.06948 0.963597 0.844721C1.29997 0.619964 1.69544 0.5 2.09999 0.5C2.64248 0.5 3.16275 0.715503 3.54634 1.0991C3.92994 1.4827 4.14544 2.00297 4.14544 2.54545ZM3.68181 5.95455V14.9914C3.68217 15.058 3.66935 15.1241 3.64408 15.1858C3.61882 15.2475 3.58161 15.3036 3.5346 15.3509C3.48758 15.3981 3.43169 15.4356 3.37013 15.4612C3.30857 15.4868 3.24256 15.5 3.1759 15.5H1.01999C0.953324 15.5002 0.887279 15.4872 0.825653 15.4618C0.764026 15.4363 0.708033 15.399 0.660893 15.3518C0.613752 15.3047 0.576394 15.2487 0.550965 15.1871C0.525536 15.1254 0.512537 15.0594 0.512717 14.9927V5.95455C0.512717 5.82001 0.566162 5.69098 0.661294 5.59585C0.756426 5.50072 0.885453 5.44727 1.01999 5.44727H3.1759C3.3102 5.44763 3.43887 5.50124 3.53371 5.59633C3.62855 5.69142 3.68181 5.82024 3.68181 5.95455ZM14.9509 10.6591V15.0336C14.9511 15.0949 14.9391 15.1557 14.9158 15.2123C14.8924 15.269 14.8581 15.3205 14.8147 15.3638C14.7714 15.4072 14.7199 15.4415 14.6632 15.4649C14.6066 15.4882 14.5458 15.5002 14.4845 15.5H12.1664C12.1051 15.5002 12.0443 15.4882 11.9877 15.4649C11.931 15.4415 11.8795 15.4072 11.8362 15.3638C11.7929 15.3205 11.7585 15.269 11.7351 15.2123C11.7118 15.1557 11.6998 15.0949 11.7 15.0336V10.7941C11.7 10.1614 11.8855 8.02318 10.0459 8.02318C8.6209 8.02318 8.33044 9.48637 8.27317 10.1436V15.0336C8.27318 15.1562 8.22499 15.2738 8.13899 15.361C8.053 15.4483 7.93613 15.4982 7.81362 15.5H5.57453C5.51335 15.5 5.45278 15.4879 5.39627 15.4645C5.33977 15.441 5.28844 15.4066 5.24525 15.3633C5.20205 15.32 5.16783 15.2686 5.14454 15.212C5.12125 15.1554 5.10935 15.0948 5.10953 15.0336V5.915C5.10935 5.85382 5.12125 5.79321 5.14454 5.73663C5.16783 5.68006 5.20205 5.62864 5.24525 5.58531C5.28844 5.54199 5.33977 5.50762 5.39627 5.48416C5.45278 5.46071 5.51335 5.44864 5.57453 5.44864H7.81362C7.93731 5.44864 8.05593 5.49777 8.14339 5.58523C8.23085 5.67269 8.27999 5.79131 8.27999 5.915V6.70318C8.80908 5.90955 9.59317 5.29727 11.2664 5.29727C14.9727 5.29727 14.9509 8.75818 14.9509 10.6591Z" fill="#090F1D"/>
</g>
<defs>
<clipPath id="clip0_15_44">
<rect width="15" height="16" fill="white"/>
</clipPath>
</defs>
</svg>
