<svg width="15" height="12" viewBox="0 0 15 12" fill="none" xmlns="http://www.w3.org/2000/svg">
<g clip-path="url(#clip0_15_38)">
<path d="M14.0373 0.204303L13.7891 0.294303L0.319088 5.14749C0.223632 5.177 0.140668 5.23736 0.0832002 5.31909C0.0257321 5.40083 -0.00299179 5.49932 0.00153099 5.59913C0.00605378 5.69895 0.0435674 5.79444 0.108192 5.87064C0.172816 5.94684 0.260899 5.99945 0.358633 6.02021L3.84545 6.97476L4.49591 8.88385L5.14636 10.7929C5.18373 10.8865 5.24338 10.9696 5.32012 11.0349C5.39687 11.1002 5.4884 11.1458 5.58676 11.1677C5.68512 11.1896 5.78734 11.1871 5.88454 11.1606C5.98175 11.134 6.071 11.0841 6.14455 11.0152L7.94591 9.31339L11.4832 11.712C11.9155 12.0066 12.5318 11.7884 12.6423 11.3029L14.985 0.951576C15.0995 0.438848 14.5595 0.017485 14.0373 0.204303ZM12.3177 2.50203L6.23182 7.47658L5.94545 7.71112C5.88255 7.761 5.84148 7.83336 5.83091 7.91294L5.76682 8.44203L5.59091 9.92839C5.59236 9.94648 5.58656 9.96439 5.5748 9.9782C5.56303 9.99201 5.54627 10.0006 5.52818 10.002C5.5101 10.0035 5.49218 9.99768 5.47837 9.98592C5.46456 9.97415 5.45599 9.95739 5.45455 9.9393L4.95955 8.4543L4.44818 6.93385C4.42655 6.8655 4.42943 6.79176 4.45631 6.72531C4.48319 6.65885 4.53239 6.60385 4.59545 6.56976L10.9282 2.93976L12.12 2.25794C12.2932 2.15703 12.4705 2.37658 12.3177 2.50203Z" fill="#090F1D"/>
</g>
<defs>
<clipPath id="clip0_15_38">
<rect width="15" height="12" fill="white"/>
</clipPath>
</defs>
</svg>
