<svg width="15" height="14" viewBox="0 0 15 14" fill="none" xmlns="http://www.w3.org/2000/svg">
<g clip-path="url(#clip0_15_41)">
<path d="M14.9714 2.46022C14.6154 2.99205 14.1819 3.46775 13.6855 3.87159C13.6211 3.9228 13.5691 3.98793 13.5334 4.06208C13.4978 4.13623 13.4794 4.21749 13.4795 4.29977V4.35022C13.4739 5.42189 13.2772 6.48397 12.8986 7.48659C12.5087 8.53745 11.9296 9.50801 11.19 10.3502C10.2006 11.4781 8.92607 12.3193 7.49999 12.7857C6.5603 13.0906 5.57791 13.2435 4.58999 13.2384C3.02542 13.2368 1.48905 12.8219 0.136355 12.0357C0.0879193 12.0081 0.049831 11.9655 0.0279145 11.9143C0.00599795 11.8631 0.00145929 11.8061 0.014992 11.752C0.0287068 11.6986 0.059932 11.6513 0.103682 11.6177C0.147432 11.5841 0.201184 11.5661 0.256355 11.5666H0.629991C1.81921 11.5664 2.98123 11.2107 3.96681 10.5452C3.3793 10.4492 2.82956 10.1933 2.37785 9.80555C1.92613 9.41781 1.58986 8.91321 1.4059 8.34704C1.39687 8.31913 1.39526 8.28935 1.40123 8.26062C1.40719 8.2319 1.42053 8.20522 1.43993 8.18322C1.45932 8.16121 1.48411 8.14462 1.51185 8.13509C1.5396 8.12556 1.56935 8.12341 1.59817 8.12886C1.77798 8.16305 1.96059 8.1804 2.14363 8.18068H2.21181C1.64236 7.91903 1.16093 7.49799 0.825756 6.96848C0.490577 6.43897 0.31601 5.82368 0.323173 5.19704C0.323562 5.16764 0.331548 5.13884 0.346355 5.11345C0.361162 5.08805 0.382286 5.06691 0.407676 5.05209C0.433067 5.03726 0.461859 5.02926 0.491256 5.02886C0.520653 5.02845 0.549656 5.03565 0.575446 5.04977C0.80649 5.17879 1.0543 5.27516 1.31181 5.33613C0.801881 4.832 0.47368 4.17289 0.378668 3.46215C0.283656 2.75141 0.427206 2.02923 0.78681 1.40886C0.800605 1.386 0.819618 1.36673 0.842292 1.35263C0.864967 1.33853 0.890658 1.33 0.917263 1.32774C0.943868 1.32547 0.970631 1.32955 0.99536 1.33962C1.02009 1.34969 1.04208 1.36547 1.05954 1.38568C1.77372 2.26853 2.658 2.99892 3.65987 3.53347C4.66175 4.06802 5.7608 4.39585 6.89181 4.49749H6.90408C6.92084 4.49695 6.93732 4.49304 6.95254 4.48602C6.96776 4.47899 6.98143 4.46898 6.99272 4.45659C7.00358 4.44418 7.01173 4.42965 7.01666 4.41392C7.02159 4.39819 7.02319 4.3816 7.02135 4.36522C6.97913 3.96921 7.00496 3.56889 7.09772 3.18159C7.179 2.84252 7.31734 2.51974 7.50681 2.22704C7.90443 1.60253 8.51016 1.13881 9.21681 0.917949C9.54827 0.814025 9.89352 0.760698 10.2409 0.759767C11.0287 0.75899 11.7896 1.04608 12.3805 1.56704C12.4557 1.63395 12.5525 1.67168 12.6532 1.6734C12.6863 1.67285 12.7193 1.66828 12.7514 1.65977C13.3069 1.51923 13.8392 1.29923 14.3318 1.00659C14.3615 0.989452 14.3956 0.981651 14.4298 0.984198C14.4639 0.986745 14.4965 0.999522 14.5233 1.02086C14.5501 1.04221 14.5698 1.07112 14.5799 1.10384C14.5901 1.13657 14.5901 1.17158 14.58 1.20431C14.4147 1.72042 14.1221 2.18658 13.7291 2.55977C14.0835 2.47511 14.4295 2.35826 14.7627 2.21068C14.7963 2.19571 14.8339 2.1921 14.8697 2.2004C14.9055 2.2087 14.9377 2.22846 14.9613 2.25667C14.9849 2.28489 14.9986 2.32002 15.0004 2.35676C15.0022 2.39349 14.992 2.42981 14.9714 2.46022Z" fill="#090F1D"/>
</g>
<defs>
<clipPath id="clip0_15_41">
<rect width="15" height="14" fill="white"/>
</clipPath>
</defs>
</svg>
