<svg width="162" height="163" viewBox="0 0 162 163" fill="none" xmlns="http://www.w3.org/2000/svg">
<path d="M80.5 64L85.2266 76.7734L98 81.5L85.2266 86.2266L80.5 99L75.7734 86.2266L63 81.5L75.7734 76.7734L80.5 64Z" fill="white"/>
<path d="M5.76244 82.2204L6.71938 82.4877L6.74545 80.2638L5.7827 80.4925C5.25844 80.6251 4.70213 80.7626 4.11375 80.905C3.5255 81.0368 2.95858 81.1688 2.41299 81.3011L2.41224 81.3651C2.96537 81.4996 3.53443 81.6396 4.11943 81.7851C4.69389 81.9199 5.24156 82.065 5.76244 82.2204ZM10.9978 86.0581L0.604794 82.672L0.637995 79.8402L11.1075 76.6987L11.0783 79.1945L8.59095 79.8054L8.55362 82.9892L11.0259 83.6582L10.9978 86.0581Z" fill="white"/>
<path d="M11.9531 70.3425L4.17524 68.7663L4.55656 66.8846L5.9526 67.0042L5.96532 66.9415C5.4998 66.5533 5.18185 66.1352 5.01145 65.6871C4.8306 65.2369 4.78042 64.8131 4.86092 64.4159C4.90541 64.1963 4.95816 64.0166 5.01918 63.8765C5.06975 63.7344 5.13176 63.6164 5.20522 63.5224L7.12047 64.3024C7.05112 64.4298 6.99222 64.5593 6.94377 64.691C6.89744 64.8122 6.85733 64.9565 6.82343 65.1237C6.76411 65.4164 6.81139 65.7471 6.96525 66.1157C7.11078 66.4716 7.42372 66.8071 7.90406 67.1222L12.4203 68.0373L11.9531 70.3425Z" fill="white"/>
<path d="M16.095 56.2577C15.7427 57.1736 15.2261 57.7292 14.5453 57.9245C13.8683 58.1097 13.1017 58.0377 12.2456 57.7084L9.24398 56.5537L8.85335 57.5692L7.22564 56.943L7.57262 55.7736L5.6991 54.7615L6.39993 52.9396L8.37111 53.6979L9.05471 51.9209L10.772 52.5815L10.0884 54.3585L13.0601 55.5017C13.4783 55.6625 13.8145 55.6947 14.0687 55.5982C14.3169 55.488 14.4964 55.2885 14.6075 54.9998C14.6535 54.8803 14.6845 54.7551 14.7006 54.6242C14.7205 54.4832 14.7297 54.3554 14.7282 54.2405L16.4581 54.5117C16.4451 54.7238 16.4149 54.9807 16.3674 55.2825C16.3237 55.5743 16.2329 55.8993 16.095 56.2577Z" fill="white"/>
<path d="M20.0652 47.2445L12.33 44.5831L13.603 42.6244L17.1071 43.986C17.4728 44.1474 17.8313 44.3104 18.1823 44.475C18.5333 44.6395 18.8962 44.8054 19.2709 44.9726L19.3058 44.919C19.0067 44.6355 18.7091 44.3594 18.413 44.0906C18.1228 43.8129 17.8473 43.5321 17.5866 43.2482L14.9807 40.5048L16.0881 38.8011L19.6619 40.0553C20.0451 40.1899 20.4181 40.3305 20.7807 40.4772C21.1492 40.6149 21.5237 40.7629 21.9042 40.9212L21.9391 40.8676C21.64 40.5841 21.341 40.3198 21.0423 40.0747C20.7494 39.8208 20.4578 39.5549 20.1676 39.2772L17.4919 36.6412L18.6778 34.8167L24.2941 40.7381L22.7944 43.0455L19.7458 41.9227C19.3921 41.7819 19.0383 41.641 18.6846 41.5002C18.3367 41.3504 17.9636 41.1905 17.5651 41.0206L17.5302 41.0742C17.8473 41.3694 18.1449 41.6455 18.423 41.9026C18.707 42.1508 18.9851 42.4079 19.2575 42.674L21.53 44.9907L20.0652 47.2445Z" fill="white"/>
<path d="M32.2684 31.962C31.7866 32.4305 31.22 32.7582 30.5687 32.9452C29.9175 33.1171 29.2463 33.1077 28.555 32.917C27.8563 32.7186 27.202 32.3058 26.5923 31.6787C25.9751 31.044 25.5809 30.3784 25.4096 29.6821C25.2383 28.9857 25.2515 28.3183 25.449 27.6799C25.6467 27.0264 25.9865 26.4654 26.4683 25.997C26.9501 25.5285 27.5165 25.2083 28.1677 25.0364C28.8114 24.8569 29.4789 24.8624 30.1702 25.0532C30.8615 25.2439 31.5157 25.6566 32.1329 26.2914C32.7426 26.9185 33.1369 27.584 33.3156 28.2881C33.4869 28.9844 33.4774 29.6556 33.2873 30.3017C33.0898 30.9401 32.7502 31.4935 32.2684 31.962ZM30.941 30.5969C31.2852 30.2623 31.4039 29.8642 31.2972 29.4025C31.1831 28.9333 30.8881 28.4539 30.4122 27.9645C29.9289 27.4674 29.458 27.1591 28.9995 27.0395C28.5411 26.9199 28.1398 27.0274 27.7956 27.362C27.4438 27.7041 27.3213 28.1059 27.428 28.5676C27.5423 29.0218 27.8411 29.4974 28.3244 29.9945C28.8004 30.4839 29.2674 30.796 29.7257 30.9306C30.1841 31.0502 30.5893 30.939 30.941 30.5969Z" fill="white"/>
<path d="M39.935 25.214L35.5188 18.6203L37.114 17.5519L38.0216 18.6194L38.0748 18.5838C38.0173 17.9804 38.0857 17.4596 38.28 17.0213C38.4684 16.5742 38.731 16.2379 39.0677 16.0123C39.2538 15.8876 39.4178 15.7971 39.5597 15.7405C39.6957 15.6752 39.8228 15.635 39.9411 15.6199L40.7528 17.5219C40.6139 17.5636 40.4808 17.6142 40.3537 17.6737C40.2355 17.7272 40.1055 17.8014 39.9637 17.8964C39.7156 18.0626 39.5164 18.3307 39.3664 18.7008C39.2192 19.0562 39.2054 19.5148 39.3249 20.0766L41.8892 23.9052L39.935 25.214Z" fill="white"/>
<path d="M49.8824 19.1757L45.4229 8.88437L47.5223 7.97466L50.0796 13.8764L50.1384 13.851L51.19 9.96004L53.539 8.94219L52.2823 13.044L56.8852 16.1412L54.5509 17.1527L51.6789 15.0318L51.2056 16.4749L51.9818 18.266L49.8824 19.1757Z" fill="white"/>
<path d="M65.982 13.8366C65.3253 13.9792 64.6711 13.9574 64.0195 13.7714C63.3761 13.5727 62.8115 13.2095 62.3259 12.6818C61.838 12.1437 61.5013 11.4473 61.3158 10.5925C61.128 9.72733 61.1457 8.95397 61.3689 8.27246C61.5921 7.59095 61.9564 7.03162 62.4619 6.59448C62.9755 6.14464 63.5607 5.84846 64.2174 5.70593C64.8741 5.56341 65.5242 5.5915 66.1676 5.79022C66.8088 5.97851 67.3722 6.33649 67.8579 6.86416C68.3435 7.39183 68.6802 8.08827 68.868 8.95346C69.0535 9.80823 69.0358 10.5816 68.8148 11.2735C68.5916 11.955 68.2284 12.5196 67.7252 12.9671C67.2198 13.4043 66.6387 13.6941 65.982 13.8366ZM65.5782 11.976C66.0473 11.8742 66.3587 11.5992 66.5125 11.151C66.664 10.6925 66.6674 10.1296 66.5226 9.46248C66.3755 8.78492 66.1391 8.2741 65.8134 7.93003C65.4877 7.58595 65.0903 7.46481 64.6212 7.56662C64.1417 7.67068 63.8251 7.94679 63.6713 8.39494C63.5279 8.84082 63.5298 9.40254 63.6768 10.0801C63.8216 10.7472 64.0528 11.2592 64.3703 11.6159C64.6961 11.96 65.0987 12.08 65.5782 11.976Z" fill="white"/>
<path d="M76.4722 12.1674L76.2318 6.07616L75.1767 6.1178L75.1079 4.37516L76.1599 4.25358L76.1429 3.82191C76.1206 3.25702 76.1963 2.74163 76.3701 2.27575C76.5438 1.80987 76.8384 1.42996 77.2538 1.13601C77.6692 0.842066 78.234 0.681001 78.9481 0.652816C79.2785 0.639776 79.5835 0.659762 79.8631 0.712775C80.1428 0.765788 80.3691 0.820904 80.5422 0.878123L80.1787 2.62182C80.038 2.57399 79.898 2.54216 79.7586 2.52631C79.6188 2.4998 79.4849 2.48907 79.357 2.49412C79.0692 2.50548 78.849 2.60491 78.6962 2.79241C78.5431 2.96926 78.4745 3.26019 78.4905 3.66521L78.5094 4.14483L79.9323 4.08867L80.0049 5.92724L78.582 5.9834L78.8224 12.0747L76.4722 12.1674Z" fill="white"/>
<path d="M89.7577 12.8229C88.7835 12.7046 88.1187 12.3391 87.7633 11.7264C87.4185 11.115 87.3014 10.354 87.4121 9.44339L87.7999 6.25086L86.7198 6.11966L86.9301 4.38839L88.1488 4.43972L88.6735 2.37593L90.6112 2.61132L90.3566 4.7079L92.2467 4.9375L92.0248 6.76407L90.1347 6.53448L89.7508 9.69524C89.6967 10.14 89.7475 10.4739 89.9031 10.6969C90.0705 10.9107 90.3078 11.0362 90.6149 11.0735C90.7419 11.0889 90.8709 11.0885 91.0018 11.0722C91.1434 11.0571 91.2696 11.0348 91.3807 11.0053L91.5395 12.7492C91.3306 12.7883 91.0741 12.8216 90.7699 12.8492C90.4763 12.878 90.1389 12.8692 89.7577 12.8229Z" fill="white"/>
<path d="M98.2194 14.1513L101.631 3.46686L103.872 4.18232L103.035 6.8039L102.495 8.12635C102.86 7.96317 103.265 7.83492 103.709 7.74159C104.167 7.64134 104.65 7.67234 105.158 7.83457C105.981 8.09739 106.488 8.56156 106.678 9.22707C106.882 9.88567 106.833 10.6875 106.531 11.6325L105.032 16.3269L102.792 15.6115L104.198 11.2066C104.374 10.6579 104.418 10.2576 104.33 10.0057C104.253 9.75704 104.051 9.5808 103.726 9.47697C103.442 9.38612 103.177 9.37429 102.931 9.4415C102.689 9.49854 102.409 9.60497 102.09 9.76081L100.46 14.8668L98.2194 14.1513Z" fill="white"/>
<path d="M114.883 21.1797C114.222 20.8091 113.708 20.3309 113.339 19.7451C112.971 19.1592 112.784 18.5104 112.78 17.7986C112.776 17.0868 112.987 16.3495 113.415 15.5867C113.838 14.8332 114.354 14.2727 114.964 13.9054C115.583 13.5433 116.225 13.3589 116.889 13.3524C117.558 13.3365 118.167 13.4825 118.716 13.7904C119.376 14.1609 119.837 14.6151 120.098 15.1528C120.374 15.6865 120.477 16.2645 120.41 16.8869C120.356 17.5052 120.152 18.1307 119.797 18.7633C119.698 18.94 119.59 19.1115 119.472 19.2779C119.359 19.4349 119.27 19.55 119.205 19.6233L115.06 17.2983C114.871 17.8529 114.872 18.3424 115.062 18.7669C115.257 19.1822 115.583 19.5176 116.038 19.7734C116.531 20.05 117.115 20.1757 117.79 20.1505L117.777 21.776C117.288 21.8196 116.785 21.7885 116.27 21.6827C115.754 21.577 115.292 21.4093 114.883 21.1797ZM115.806 15.937L118.303 17.3382C118.517 16.9568 118.599 16.593 118.549 16.2467C118.513 15.8964 118.29 15.6064 117.881 15.3768C117.565 15.1993 117.218 15.1518 116.842 15.2341C116.471 15.3072 116.125 15.5415 115.806 15.937Z" fill="white"/>
<path d="M124.437 27.2521L128.282 20.0318L130.016 21.5971L128.12 24.8434C127.903 25.1792 127.686 25.5075 127.468 25.8283C127.25 26.1491 127.029 26.4814 126.805 26.8251L126.853 26.868C127.18 26.6172 127.499 26.3667 127.811 26.1166C128.131 25.8737 128.452 25.6458 128.773 25.433L131.892 23.2911L133.401 24.6526L131.6 27.9847C131.407 28.342 131.209 28.6881 131.007 29.0232C130.813 29.3654 130.608 29.712 130.392 30.0629L130.44 30.1058C130.767 29.855 131.075 29.6013 131.364 29.3449C131.66 29.0956 131.969 28.8494 132.289 28.6065L135.313 26.3788L136.928 27.8368L130.197 32.4519L128.154 30.6078L129.743 27.7738C129.937 27.4466 130.132 27.1195 130.327 26.7923C130.529 26.4723 130.746 26.1289 130.976 25.7622L130.929 25.7193C130.588 25.986 130.268 26.2364 129.97 26.4707C129.681 26.7121 129.383 26.9463 129.077 27.1734L126.432 29.0533L124.437 27.2521Z" fill="white"/>
<path d="M137.692 41.825C137.256 41.2057 136.999 40.5523 136.919 39.8648C136.839 39.1773 136.951 38.5116 137.254 37.8676C137.558 37.2237 138.067 36.6499 138.782 36.1464C139.488 35.649 140.196 35.3662 140.904 35.2978C141.619 35.2382 142.277 35.3487 142.879 35.6294C143.49 35.9038 143.977 36.2984 144.339 36.813C144.775 37.4322 144.994 38.0407 144.998 38.6384C145.016 39.2387 144.86 39.8049 144.531 40.3371C144.216 40.8719 143.762 41.3481 143.169 41.7656C143.003 41.8823 142.831 41.9902 142.653 42.0895C142.484 42.1826 142.354 42.248 142.263 42.2858L139.527 38.4002C139.118 38.819 138.907 39.2609 138.895 39.7258C138.892 40.1846 139.041 40.6277 139.342 41.055C139.667 41.5173 140.14 41.8826 140.759 42.151L140.046 43.6118C139.586 43.44 139.146 43.1952 138.727 42.8774C138.307 42.5595 137.963 42.2088 137.692 41.825ZM140.787 37.4937L142.436 39.8355C142.794 39.5838 143.024 39.2908 143.128 38.9567C143.247 38.6252 143.171 38.2676 142.901 37.8838C142.692 37.5873 142.4 37.395 142.025 37.3068C141.659 37.2126 141.246 37.2749 140.787 37.4937Z" fill="white"/>
<path d="M144.361 53.6213C144.053 52.9292 143.927 52.2382 143.982 51.5483C144.037 50.8585 144.276 50.227 144.699 49.6541C145.121 49.0812 145.732 48.6171 146.531 48.2618C147.321 47.9109 148.07 47.7706 148.778 47.841C149.49 47.9211 150.115 48.1572 150.651 48.5493C151.197 48.937 151.598 49.4184 151.853 49.9935C152.161 50.6855 152.258 51.3251 152.146 51.9121C152.047 52.5045 151.784 53.0298 151.358 53.4879C150.945 53.9515 150.407 54.3305 149.745 54.6251C149.559 54.7074 149.37 54.78 149.176 54.8428C148.992 54.9013 148.852 54.9403 148.755 54.9598L146.825 50.6174C146.342 50.9488 146.05 51.3414 145.948 51.7952C145.856 52.2447 145.916 52.7082 146.128 53.1859C146.358 53.7025 146.751 54.1524 147.306 54.5358L146.323 55.8306C145.905 55.5729 145.521 55.2474 145.171 54.8543C144.822 54.4612 144.551 54.0501 144.361 53.6213ZM148.237 49.9724L149.4 52.5896C149.8 52.4119 150.083 52.1693 150.25 51.8618C150.431 51.5596 150.426 51.1941 150.235 50.7652C150.088 50.4338 149.839 50.1885 149.488 50.0293C149.147 49.8657 148.73 49.8468 148.237 49.9724Z" fill="white"/>
<path d="M148.016 62.9804L158.954 60.4992L159.46 62.7305L153.188 64.1534L153.202 64.2158L156.832 65.9683L157.398 68.4648L153.599 66.4719L149.705 70.4233L149.142 67.9423L151.757 65.5116L150.426 64.7799L148.522 65.2117L148.016 62.9804Z" fill="white"/>
<path d="M155.745 78.8916L154.78 78.6558L154.827 80.8793L155.781 80.6193C156.301 80.4697 156.852 80.3141 157.436 80.1526C158.02 80.0017 158.582 79.8512 159.123 79.7012L159.121 79.6372C158.564 79.5208 157.991 79.3995 157.402 79.2731C156.823 79.1572 156.271 79.03 155.745 78.8916ZM150.387 75.2269L160.885 78.272L160.945 81.1034L150.583 84.5848L150.531 82.0894L152.997 81.3976L152.93 78.2143L150.438 77.6263L150.387 75.2269Z" fill="white"/>
<path d="M149.945 90.9653L157.771 92.2868L157.451 94.1799L156.052 94.1059L156.041 94.169C156.519 94.5418 156.85 94.9494 157.035 95.3917C157.231 95.8357 157.295 96.2576 157.227 96.6573C157.19 96.8782 157.143 97.0596 157.087 97.2015C157.041 97.3452 156.983 97.4652 156.912 97.5615L154.973 96.8445C155.038 96.7148 155.092 96.5834 155.136 96.4503C155.179 96.3276 155.214 96.1821 155.243 96.0138C155.292 95.7193 155.234 95.3904 155.068 95.0271C154.911 94.676 154.588 94.3509 154.097 94.0517L149.554 93.2844L149.945 90.9653Z" fill="white"/>
<path d="M146.265 105.178C146.587 104.251 147.086 103.679 147.76 103.461C148.43 103.254 149.199 103.301 150.065 103.602L153.103 104.658L153.46 103.631L155.108 104.203L154.799 105.383L156.704 106.334L156.063 108.178L154.069 107.484L153.443 109.282L151.705 108.678L152.331 106.88L149.323 105.834C148.9 105.687 148.563 105.666 148.312 105.771C148.068 105.889 147.895 106.094 147.793 106.386C147.751 106.507 147.724 106.633 147.712 106.765C147.697 106.906 147.692 107.034 147.697 107.149L145.959 106.935C145.965 106.722 145.987 106.464 146.025 106.161C146.059 105.868 146.139 105.54 146.265 105.178Z" fill="white"/>
<path d="M142.591 114.316L150.409 116.723L149.201 118.722L145.654 117.476C145.283 117.327 144.92 117.175 144.564 117.022C144.207 116.869 143.839 116.715 143.459 116.56L143.426 116.615C143.734 116.889 144.041 117.155 144.345 117.414C144.645 117.682 144.929 117.954 145.199 118.229L147.893 120.886L146.842 122.625L143.229 121.488C142.842 121.366 142.464 121.237 142.097 121.103C141.724 120.977 141.345 120.841 140.96 120.696L140.926 120.75C141.235 121.024 141.542 121.278 141.849 121.514C142.15 121.758 142.45 122.014 142.749 122.282L145.509 124.829L144.383 126.692L138.577 120.957L140.001 118.602L143.084 119.624C143.442 119.753 143.8 119.883 144.159 120.012C144.511 120.15 144.889 120.298 145.293 120.455L145.326 120.4C145 120.115 144.693 119.849 144.407 119.601C144.115 119.362 143.829 119.114 143.548 118.857L141.201 116.616L142.591 114.316Z" fill="white"/>
<path d="M130.893 129.988C131.36 129.504 131.915 129.158 132.56 128.95C133.205 128.757 133.876 128.745 134.574 128.913C135.278 129.088 135.946 129.479 136.576 130.086C137.213 130.7 137.629 131.353 137.823 132.043C138.017 132.734 138.025 133.401 137.849 134.046C137.672 134.705 137.351 135.277 136.885 135.761C136.419 136.245 135.863 136.583 135.218 136.776C134.58 136.977 133.913 136.993 133.216 136.825C132.519 136.657 131.851 136.266 131.214 135.651C130.584 135.045 130.168 134.392 129.967 133.694C129.773 133.004 129.76 132.333 129.929 131.681C130.106 131.036 130.427 130.472 130.893 129.988ZM132.264 131.309C131.931 131.655 131.826 132.057 131.947 132.515C132.077 132.98 132.387 133.449 132.879 133.923C133.378 134.404 133.859 134.697 134.321 134.801C134.783 134.906 135.181 134.785 135.514 134.44C135.854 134.086 135.964 133.681 135.842 133.223C135.713 132.773 135.399 132.307 134.899 131.826C134.408 131.352 133.931 131.056 133.468 130.936C133.006 130.832 132.605 130.956 132.264 131.309Z" fill="white"/>
<path d="M123.451 136.983L128.08 143.429L126.52 144.549L125.578 143.511L125.526 143.549C125.604 144.15 125.552 144.673 125.372 145.117C125.199 145.57 124.947 145.915 124.618 146.151C124.436 146.282 124.275 146.378 124.135 146.439C124.001 146.509 123.876 146.553 123.758 146.572L122.884 144.697C123.022 144.651 123.153 144.596 123.278 144.533C123.395 144.475 123.522 144.397 123.661 144.297C123.904 144.123 124.094 143.849 124.232 143.474C124.367 143.114 124.366 142.655 124.228 142.097L121.54 138.355L123.451 136.983Z" fill="white"/>
<path d="M113.706 143.342L118.499 153.483L116.43 154.461L113.682 148.645L113.624 148.673L112.7 152.596L110.385 153.69L111.507 149.549L106.806 146.604L109.106 145.517L112.046 147.543L112.471 146.085L111.637 144.32L113.706 143.342Z" fill="white"/>
<path d="M97.7891 149.204C98.4408 149.04 99.0953 149.041 99.7527 149.205C100.402 149.383 100.978 149.727 101.481 150.239C101.986 150.761 102.345 151.446 102.559 152.294C102.775 153.153 102.782 153.926 102.581 154.615C102.38 155.303 102.035 155.874 101.544 156.328C101.045 156.794 100.47 157.109 99.8181 157.273C99.1664 157.437 98.5157 157.43 97.8661 157.252C97.2191 157.085 96.6443 156.746 96.1418 156.234C95.6392 155.723 95.2799 155.037 95.064 154.179C94.8507 153.331 94.8432 152.557 95.0414 151.858C95.2423 151.17 95.5868 150.594 96.0752 150.13C96.5661 149.677 97.1374 149.368 97.7891 149.204ZM98.2534 151.051C97.7879 151.168 97.4856 151.453 97.3465 151.906C97.2101 152.369 97.2251 152.931 97.3915 153.594C97.5606 154.266 97.8136 154.769 98.1503 155.102C98.4871 155.435 98.8882 155.543 99.3538 155.426C99.8296 155.307 100.137 155.02 100.276 154.567C100.405 154.117 100.385 153.556 100.216 152.883C100.049 152.221 99.8014 151.717 99.4724 151.371C99.1356 151.038 98.7293 150.931 98.2534 151.051Z" fill="white"/>
<path d="M87.3589 151.215L87.7979 157.295L88.8512 157.219L88.9768 158.958L87.9293 159.114L87.9604 159.545C88.0011 160.109 87.9422 160.626 87.7838 161.098C87.6253 161.569 87.3433 161.958 86.9377 162.266C86.5321 162.573 85.9729 162.752 85.2601 162.804C84.9303 162.828 84.6248 162.818 84.3436 162.774C84.0623 162.73 83.8343 162.682 83.6595 162.631L83.9659 160.876C84.1081 160.919 84.249 160.947 84.3889 160.958C84.5295 160.98 84.6636 160.986 84.7913 160.977C85.0786 160.956 85.2955 160.85 85.442 160.657C85.5893 160.476 85.6483 160.182 85.6191 159.778L85.5846 159.299L84.1643 159.402L84.0317 157.567L85.452 157.464L85.013 151.384L87.3589 151.215Z" fill="white"/>
<path d="M74.0591 150.993C75.0367 151.079 75.713 151.423 76.0882 152.024C76.4527 152.624 76.5946 153.38 76.5138 154.294L76.2303 157.498L77.3141 157.594L77.1604 159.331L75.9407 159.319L75.4836 161.399L73.5392 161.227L73.7253 159.123L71.8287 158.955L71.9909 157.123L73.8875 157.29L74.1681 154.119C74.2076 153.672 74.1459 153.34 73.9832 153.123C73.8088 152.914 73.5676 152.797 73.2595 152.769C73.132 152.758 73.0031 152.763 72.8727 152.783C72.7318 152.803 72.6063 152.829 72.4963 152.863L72.2806 151.125C72.4881 151.079 72.7435 151.037 73.0466 151C73.3391 150.961 73.6766 150.959 74.0591 150.993Z" fill="white"/>
<path d="M65.5586 149.941L62.4973 160.731L60.2346 160.089L60.9857 157.442L61.4821 156.103C61.122 156.278 60.7216 156.419 60.2807 156.527C59.8267 156.642 59.3432 156.627 58.8301 156.481C57.9989 156.245 57.4772 155.798 57.265 155.139C57.0396 154.487 57.0623 153.684 57.3331 152.73L58.6782 147.989L60.9409 148.631L59.6788 153.08C59.5216 153.634 59.4908 154.035 59.5865 154.284C59.6719 154.53 59.8788 154.7 60.2072 154.793C60.4945 154.874 60.7597 154.878 61.0028 154.802C61.243 154.737 61.5197 154.622 61.8329 154.456L63.2959 149.299L65.5586 149.941Z" fill="white"/>
<path d="M48.675 143.461C49.3472 143.809 49.877 144.27 50.2644 144.844C50.6518 145.417 50.8593 146.06 50.8868 146.771C50.9143 147.482 50.7267 148.226 50.3239 149.003C49.926 149.77 49.4283 150.347 48.831 150.734C48.2241 151.116 47.5889 151.321 46.9254 151.349C46.2569 151.387 45.6433 151.261 45.0847 150.971C44.4125 150.622 43.9372 150.183 43.6588 149.654C43.3661 149.13 43.2435 148.556 43.291 147.931C43.3241 147.312 43.5077 146.68 43.8418 146.036C43.9351 145.856 44.0379 145.681 44.1502 145.511C44.2576 145.35 44.3428 145.232 44.406 145.157L48.624 147.346C48.7946 146.785 48.7781 146.296 48.5744 145.878C48.3658 145.469 48.0296 145.144 47.5656 144.904C47.0638 144.643 46.4762 144.537 45.8028 144.584L45.7627 142.959C46.2503 142.899 46.7534 142.914 47.272 143.003C47.7907 143.092 48.2584 143.244 48.675 143.461ZM47.9235 148.731L45.3813 147.412C45.1798 147.8 45.11 148.166 45.1716 148.51C45.2189 148.859 45.4508 149.142 45.8674 149.358C46.1893 149.525 46.537 149.561 46.9106 149.467C47.2792 149.382 47.6168 149.136 47.9235 148.731Z" fill="white"/>
<path d="M38.9277 137.703L35.3204 145.045L33.5362 143.537L35.3251 140.231C35.5309 139.888 35.7374 139.553 35.9446 139.225C36.1517 138.897 36.3617 138.558 36.5744 138.207L36.5255 138.166C36.2069 138.427 35.8957 138.688 35.5921 138.948C35.2803 139.201 34.9673 139.44 34.6529 139.663L31.6054 141.905L30.0534 140.594L31.7445 137.205C31.926 136.841 32.1121 136.489 32.3029 136.147C32.4856 135.799 32.6793 135.446 32.8839 135.088L32.835 135.047C32.5164 135.308 32.2168 135.572 31.9363 135.837C31.6477 136.096 31.3475 136.352 31.0358 136.606L28.086 138.931L26.424 137.526L33.0009 132.694L35.1028 134.47L33.6078 137.355C33.4238 137.688 33.2398 138.021 33.0559 138.355C32.8638 138.681 32.6585 139.032 32.4402 139.406L32.489 139.447C32.8215 139.169 33.1326 138.908 33.4225 138.665C33.7042 138.414 33.9941 138.17 34.2921 137.933L36.8747 135.968L38.9277 137.703Z" fill="white"/>
<path d="M25.2036 123.571C25.6596 124.175 25.9386 124.82 26.0406 125.504C26.1426 126.189 26.0526 126.858 25.7705 127.512C25.4885 128.165 24.9983 128.755 24.2999 129.282C23.61 129.802 22.9121 130.108 22.2062 130.199C21.4939 130.282 20.8323 130.193 20.2215 129.932C19.6022 129.678 19.1031 129.299 18.7242 128.797C18.2683 128.192 18.0289 127.591 18.006 126.994C17.9682 126.394 18.1054 125.823 18.4176 125.281C18.7149 124.736 19.1531 124.245 19.7322 123.809C19.8941 123.687 20.0623 123.573 20.237 123.468C20.4031 123.37 20.5309 123.3 20.6204 123.259L23.4814 127.053C23.8771 126.621 24.0732 126.173 24.0699 125.708C24.0581 125.249 23.8948 124.811 23.5801 124.394C23.2398 123.943 22.7557 123.593 22.1279 123.345L22.7929 121.862C23.2583 122.018 23.7059 122.249 24.1354 122.552C24.565 122.856 24.9211 123.196 25.2036 123.571ZM22.2518 128.001L20.5275 125.714C20.1783 125.977 19.9572 126.277 19.8642 126.615C19.7563 126.95 19.8436 127.305 20.1262 127.68C20.3445 127.969 20.6426 128.152 21.0204 128.228C21.3896 128.31 21.8001 128.234 22.2518 128.001Z" fill="white"/>
<path d="M18.1538 111.998C18.4838 112.68 18.6325 113.366 18.5998 114.058C18.5671 114.749 18.3491 115.388 17.9456 115.974C17.5422 116.561 16.9468 117.044 16.1595 117.425C15.3819 117.802 14.638 117.967 13.9277 117.919C13.2129 117.863 12.5811 117.647 12.0325 117.273C11.4743 116.903 11.058 116.435 10.7838 115.868C10.4538 115.187 10.3355 114.551 10.4289 113.96C10.5081 113.365 10.7534 112.831 11.1649 112.36C11.5622 111.883 12.0873 111.486 12.7401 111.17C12.9225 111.082 13.1096 111.003 13.3013 110.934C13.4834 110.87 13.6223 110.826 13.718 110.804L15.7887 115.081C16.2607 114.734 16.5401 114.332 16.6271 113.875C16.7044 113.423 16.6292 112.961 16.4014 112.491C16.1551 111.982 15.748 111.545 15.1802 111.18L16.1202 109.854C16.5465 110.098 16.9409 110.411 17.3033 110.792C17.6658 111.174 17.9493 111.576 18.1538 111.998ZM14.3988 115.771L13.1508 113.194C12.7572 113.384 12.482 113.636 12.3254 113.949C12.1545 114.257 12.1713 114.622 12.3758 115.044C12.5338 115.371 12.7908 115.608 13.1467 115.755C13.493 115.908 13.9104 115.913 14.3988 115.771Z" fill="white"/>
<path d="M14.195 102.763L3.34363 105.6L2.76494 103.386L8.98781 101.76L8.97163 101.698L5.28677 100.065L4.63928 97.5878L8.5013 99.4557L12.2646 95.3794L12.9081 97.8407L10.3737 100.355L11.7277 101.043L13.6163 100.55L14.195 102.763Z" fill="white"/>
</svg>
